HIERARCHY
ROOT Hips
{
	OFFSET 0.000000 0.000000 0.000000 
	CHANNELS 6 Xposition Yposition Zposition Zrotation Yrotation Xrotation
	JOINT LeftUpLeg
	{
		OFFSET 1.363060 -1.794630 0.839290 
		CHANNELS 3 Zrotation Yrotation Xrotation
		JOINT LeftLeg
		{
			OFFSET 2.448110 -6.726130 0.000000 
			CHANNELS 3 Zrotation Yrotation Xrotation
			JOINT LeftFoot
			{
				OFFSET 2.562200 -7.039590 0.000000 
				CHANNELS 3 Zrotation Yrotation Xrotation
				JOINT LeftToeBase
				{
					OFFSET 0.157640 -0.433110 2.322550 
					CHANNELS 3 Zrotation Yrotation Xrotation
					End Site
					{
						OFFSET 0.000000 0.000000 0.000000 
					}
				}
			}
		}
	}
	JOINT RightUpLeg
	{
		OFFSET -1.305520 -1.794630 0.839290 
		CHANNELS 3 Zrotation Yrotation Xrotation
		JOINT RightLeg
		{
			OFFSET -2.542530 -6.985550 0.000000 
			CHANNELS 3 Zrotation Yrotation Xrotation
			JOINT RightFoot
			{
				OFFSET -2.568260 -7.056230 0.000000 
				CHANNELS 3 Zrotation Yrotation Xrotation
				JOINT RightToeBase
				{
					OFFSET -0.164730 -0.452590 2.363150 
					CHANNELS 3 Zrotation Yrotation Xrotation
					End Site
					{
						OFFSET 0.000000 0.000000 0.000000 
					}
				}
			}
		}
	}
	JOINT Spine
	{
		OFFSET 0.028270 2.035590 -0.193380 
		CHANNELS 3 Zrotation Yrotation Xrotation
		JOINT Spine1
		{
			OFFSET 0.056720 2.048850 -0.042750 
			CHANNELS 3 Zrotation Yrotation Xrotation
			JOINT Neck1
			{
				OFFSET -0.054170 1.746240 0.172020 
				CHANNELS 3 Zrotation Yrotation Xrotation
				JOINT Head
				{
					OFFSET 0.104070 1.761360 -0.123970 
					CHANNELS 3 Zrotation Yrotation Xrotation
					End Site
					{
						OFFSET 0.000000 0.000000 0.000000 
					}
				}
			}
			JOINT LeftArm
			{
				OFFSET 3.362410 1.200890 -0.311210 
				CHANNELS 3 Zrotation Yrotation Xrotation
				JOINT LeftForeArm
				{
					OFFSET 4.983000 -0.000000 -0.000000 
					CHANNELS 3 Zrotation Yrotation Xrotation
					JOINT LeftHand
					{
						OFFSET 3.483560 -0.000000 -0.000000 
						CHANNELS 3 Zrotation Yrotation Xrotation
						JOINT LeftHandIndex1
						{
							OFFSET 0.715260 -0.000000 -0.000000 
							CHANNELS 3 Zrotation Yrotation Xrotation
							End Site
							{
								OFFSET 0.000000 0.000000 0.000000 
							}
						}
					}
				}
			}
			JOINT RightArm
			{
				OFFSET -3.136600 1.374050 -0.404650 
				CHANNELS 3 Zrotation Yrotation Xrotation
				JOINT RightForeArm
				{
					OFFSET -5.241900 -0.000000 -0.000000 
					CHANNELS 3 Zrotation Yrotation Xrotation
					JOINT RightHand
					{
						OFFSET -3.444170 -0.000000 -0.000000 
						CHANNELS 3 Zrotation Yrotation Xrotation
						JOINT RightHandIndex1
						{
							OFFSET -0.622530 -0.000000 -0.000000 
							CHANNELS 3 Zrotation Yrotation Xrotation
							End Site
							{
								OFFSET 0.000000 0.000000 0.000000 
							}
						}
					}
				}
			}
		}
	}
}
MOTION
Frames: 7
Frame Time: 0.041667
8.614481 20.548231 29.522104 -170.223195 13.114665 145.981033 17.669510 -16.069103 -123.708496 34.389068 11.112784 148.659961 -3.949285 -21.580562 -48.737634 0.216400 -2.994700 -8.264000 35.872174 47.794110 -81.960046 -44.694879 -5.185581 157.333577 -7.131285 -6.731169 -59.126875 -1.089000 -6.632100 18.629800 -12.222952 8.458953 109.278088 -7.354710 5.551711 -25.697270 7.048080 6.739939 2.572500 2.751800 3.087000 4.534500 161.619206 -78.781563 164.954558 144.990437 -40.490030 -82.619890 -8.430467 6.942336 19.677112 -7.125000 0.000000 0.000000 149.381228 46.514184 112.942402 -139.853022 42.501709 -81.454923 -0.620365 -8.039123 20.127596 7.125000 0.000000 0.000000 
8.615322 20.489668 29.497541 -170.327557 13.091254 145.318533 18.146899 -14.782435 -123.670034 34.745811 11.225047 149.327477 -3.939418 -21.955534 -48.459232 0.159400 -2.572100 -7.089600 34.460861 47.910750 -83.978497 -44.555310 -4.980061 157.490434 -7.141116 -6.991194 -59.143373 -0.946700 -6.196800 17.356400 -11.804204 8.125329 109.356396 -7.550194 5.531919 -25.285252 7.398476 6.695576 0.849034 2.782300 2.997400 4.357300 160.648729 -78.543182 165.655996 145.123362 -40.599962 -82.539967 -8.362682 6.569833 18.420288 -7.125000 0.000000 0.000000 149.458264 46.911037 113.097559 -139.533250 42.609736 -80.861276 -0.488874 -8.081415 20.319264 7.125000 0.000000 0.000000 
8.616162 20.431041 29.471363 -170.416494 13.026751 144.760599 18.555331 -13.693230 -123.687324 35.075634 11.283180 149.958060 -3.729216 -22.030927 -48.527171 0.187600 -2.789500 -7.693400 33.042064 48.110259 -86.003366 -44.352351 -4.815719 157.449123 -7.160135 -7.428029 -58.889651 -0.780700 -5.641200 15.746700 -11.500026 7.843932 109.416839 -7.703500 5.480900 -24.667408 7.551019 6.683294 -1.058898 2.785900 2.916400 4.192300 159.917900 -78.353866 166.149001 145.087432 -40.758593 -82.255744 -7.928517 6.234349 17.869038 -7.125000 0.000000 0.000000 150.029640 47.372783 113.862066 -139.202859 42.691833 -80.229746 -0.304033 -8.131865 20.680129 7.125000 0.000000 0.000000 
8.618618 20.371638 29.445959 -170.607364 12.815619 144.254059 18.693628 -13.029755 -123.734616 35.363681 11.253873 150.561086 -3.758906 -22.377441 -48.349190 0.178300 -2.719600 -7.499000 31.551346 48.310706 -87.934800 -44.083913 -4.687725 157.299537 -7.095909 -7.564127 -58.543604 -0.586800 -4.904700 13.636900 -11.305901 7.641020 109.434978 -7.729964 5.454380 -24.139114 7.796567 6.670195 -2.412779 2.816500 2.854100 4.065800 159.242884 -78.008550 166.610904 144.781864 -41.047866 -81.573272 -7.186671 5.853387 18.194025 -7.125000 0.000000 0.000000 150.688279 47.748300 114.624688 -139.095273 42.701982 -79.930899 -0.078584 -8.171293 21.227400 7.125000 0.000000 0.000000 
8.621527 20.310619 29.421397 -170.572611 12.942887 143.776066 19.415568 -11.383524 -123.861352 35.676321 11.376005 151.272033 -4.069553 -23.358144 -47.600837 0.105100 -2.090400 -5.755700 30.309775 48.765925 -89.620958 -43.629073 -4.712875 156.862093 -6.839471 -6.805114 -58.161609 -0.526300 -4.649200 12.910800 -11.055918 7.404009 109.458212 -8.002978 5.323252 -23.826905 8.303453 6.662931 -3.147480 2.887700 2.812200 3.988500 159.297425 -77.743685 166.395362 143.998309 -41.506365 -80.096530 -6.596287 5.376559 19.205726 -7.125000 0.000000 0.000000 151.234349 48.046359 115.404401 -138.737966 42.830547 -79.295342 -0.087566 -8.165723 20.939057 7.125000 0.000000 0.000000 
8.622432 20.248371 29.395153 -170.175137 13.571073 143.410931 20.805475 -8.639997 -124.045633 36.032716 11.642569 152.040262 -3.685325 -23.635176 -47.694918 0.189900 -2.806700 -7.741000 30.129746 49.437826 -90.240409 -43.206274 -4.916857 156.196494 -6.670737 -6.175211 -57.913618 -0.454600 -4.325300 11.993800 -10.799397 7.166335 109.510681 -8.550064 5.039058 -23.675248 9.105467 6.583076 -3.046622 2.982600 2.766800 4.022900 160.438347 -77.712861 165.217787 142.969357 -41.937643 -78.301907 -6.365038 5.074846 20.319220 -7.125000 0.000000 0.000000 152.228731 48.324910 116.847375 -138.320922 42.940488 -78.637916 -0.263058 -8.120904 20.224294 7.125000 0.000000 0.000000 
8.622820 20.187158 29.370267 -169.799828 14.184808 143.120248 22.031069 -6.213689 -124.199450 36.328515 11.827864 152.755455 -3.528792 -24.138200 -47.514446 0.223900 -3.046100 -8.407200 29.915389 50.089682 -90.782687 -42.716720 -5.166019 155.427351 -6.419261 -5.246754 -57.796429 -0.215300 -2.987300 8.243500 -10.686496 7.014829 109.519254 -9.151243 4.703560 -23.616575 10.639580 6.413928 -2.437335 3.142800 2.702900 4.123900 161.564982 -77.637642 164.031439 142.397851 -42.093773 -77.333693 -6.518295 5.009946 20.866021 -7.125000 0.000000 0.000000 153.373742 48.566827 118.454102 -137.899111 43.037013 -77.968401 -0.427459 -8.094892 19.333926 7.125000 0.000000 0.000000 
